PathFileType	4	(X/Y/Z)	C:\Users\WrightLab\Desktop\Jo\P3_25.trc
DataRate	CameraRate	NumFrames	NumMarkers	Units	OrigDataRate	OrigDataStartFrame	OrigNumFrames
100.00	100.00	       9	19	mm	100.00	144	       575
Frame#	Time	Headset_Front			Headset_Back			Headset_Left			Headset_Right			Left_Shoulder			Right_Shoulder			Sternum			C7			Left Elbow			Right Elbow			Left Wrist			Right Wrist			Left ASIS			Right ASIS			S2			Left Knee			Right Knee			Left Ankle			Right Ankle			
		X1	Y1	Z1	X2	Y2	Z2	X3	Y3	Z3	X4	Y4	Z4	X5	Y5	Z5	X6	Y6	Z6	X7	Y7	Z7	X8	Y8	Z8	X9	Y9	Z9	X10	Y10	Z10	X11	Y11	Z11	X12	Y12	Z12	X13	Y13	Z13	X14	Y14	Z14	X15	Y15	Z15	X16	Y16	Z16	X17	Y17	Z17	X18	Y18	Z18	X19	Y19	Z19	

144	1.430	-518.16705	1475.43689	-22.17141	-621.77100	1589.74084	-284.29050	-481.07956	1533.35364	-220.37047	-653.99017	1518.01831	-77.54605	-438.43750	1301.55371	-291.56906	-784.14972	1321.41797	-184.79114	-570.00281	1205.87610	-106.25016	-631.18536	1365.17029	-288.46835	-389.93118	963.82709	-292.26355	-889.97675	987.04004	-173.03815	-396.99866	781.43964	-186.84825	-842.01538	800.94934	-47.87248	-489.18805	825.25110	-146.26826	-728.06427	858.88477	-75.78368	-662.94684	911.30151	-317.15161	-513.15344	396.55936	-211.46848	-702.14435	443.24420	-6.69232	-601.97748	195.97736	-464.58246	-712.28485	105.44191	-22.70217	
145	1.440	-515.30725	1477.18152	-12.92372	-619.93835	1591.85205	-274.41293	-478.90726	1534.72961	-210.71419	-650.69360	1520.13940	-66.93453	-437.13943	1304.31287	-284.79584	-781.56006	1323.62305	-173.61230	-566.72882	1208.21851	-97.11842	-629.67505	1367.18872	-278.77591	-388.99487	965.98590	-287.25388	-888.11896	989.18854	-160.18211	-393.76849	783.35187	-181.83299	-838.95447	802.96075	-35.27666	-485.94809	827.39984	-139.15451				-661.58954	912.51196	-307.59317	-507.64569	399.46219	-189.74965	-701.65082	443.31070	-2.79238	-599.49194	202.19530	-445.52737	-711.86792	104.77127	-22.46034	
146	1.450	-511.02423	1479.26294	-5.30282	-617.96686	1593.66650	-265.59180	-477.21191	1536.62708	-201.63329	-647.98987	1522.11487	-57.85447	-435.90445	1306.29578	-278.31488	-779.59167	1325.16199	-161.79018	-563.18555	1209.85059	-88.94563	-628.58136	1369.06384	-269.29678	-387.58020	968.07227	-281.95490	-887.13153	991.73138	-146.76218	-391.19974	785.53424	-176.46390	-835.84100	804.97009	-23.43358	-482.84589	829.25677	-130.83154	-720.33826	860.75488	-55.48296	-660.57001	914.45929	-298.52979	-502.05688	401.94113	-168.67003	-701.50018	443.81201	0.96646	-596.41638	209.04781	-427.61719	-711.97595	105.42622	-22.36758	
147	1.460	-508.47256	1481.02356	3.37551	-616.00073	1595.23022	-255.02301	-474.92697	1538.11572	-191.61256	-644.64508	1523.59985	-48.35532	-434.76718	1308.08398	-270.78217	-776.60797	1326.94324	-150.51947	-559.17194	1211.28040	-81.84241	-627.53058	1371.16504	-259.50467	-386.70712	969.88641	-276.45425	-884.76349	993.97736	-134.96477	-388.90256	787.41443	-170.79002	-833.55164	806.61877	-10.70295	-479.65051	831.56183	-124.56938	-717.11053	862.49664	-44.96132	-659.39557	916.78259	-289.25394	-496.51141	405.25641	-147.87698	-701.29834	443.91388	3.16376	-594.42542	216.61009	-409.36884	-711.82458	105.56543	-21.34342	
148	1.470	-504.41898	1481.74658	11.74444	-614.11542	1597.07202	-245.37834	-472.74521	1539.69360	-182.37746	-641.39319	1524.94165	-38.30112	-433.72202	1310.29578	-264.39633	-773.82416	1328.77905	-139.72261	-555.77979	1212.42224	-73.92673	-625.99152	1373.34326	-250.34238	-385.79666	971.98328	-270.48843	-882.55939	995.96417	-122.26721	-386.92160	789.75616	-165.88362	-830.76343	808.59906	1.36765	-476.32123	834.28625	-117.22912				-658.51007	919.70117	-281.07236	-490.37234	408.40640	-128.22476	-700.76086	443.82635	6.26159	-589.95203	223.47450	-389.49374	-711.54803	105.89941	-20.93567	
149	1.480				-612.26495	1599.53687	-236.09206	-469.07898	1541.76855	-179.80334	-638.54999	1527.13208	-29.45131	-433.15591	1312.95032	-258.33929	-770.95905	1330.32324	-128.42027	-552.04907	1213.64404	-65.31031	-624.82800	1375.09192	-241.09584	-384.01065	974.28766	-265.33740	-880.58307	997.49347	-108.69485	-384.25256	792.04193	-160.60756	-826.94824	810.66327	13.48487	-472.38516	836.50348	-110.03969	-709.77411	863.90027	-28.52293	-657.19690	921.77960	-272.13528	-484.88312	411.67508	-108.58201	-699.67743	444.66782	9.49181	-590.18658	228.85388	-370.39706	-711.41949	106.08662	-20.62750	
150	1.490	-497.74677	1484.71826	28.84838	-610.15833	1601.56396	-226.49579	-466.71994	1543.45642	-171.17090	-634.20251	1528.96912	-19.48866	-431.19620	1314.81836	-251.70825	-768.15533	1332.22192	-118.29185	-548.57922	1214.83960	-58.83559	-623.37354	1377.16760	-231.81575	-382.58405	976.41516	-261.12231	-877.90546	999.62372	-97.02087	-381.08102	794.35468	-155.83818	-823.47638	813.25909	26.87422	-469.90436	838.77911	-103.64314	-706.16211	866.01910	-19.39458	-655.51575	924.17578	-264.08340	-477.58109	416.16476	-90.18485	-698.98859	444.61731	12.27722	-587.27234	233.03755	-348.59143	-711.38898	106.10107	-20.61596	
151	1.500	-493.44446	1485.11938	38.41658	-607.95764	1603.70337	-217.64143	-464.03903	1545.24768	-162.86261	-631.03308	1530.40881	-10.18431	-430.31256	1316.94617	-246.10820	-765.26025	1333.66272	-106.92786	-544.29529	1216.18066	-51.04161	-621.63995	1379.42334	-222.70770	-381.08194	978.64301	-256.26395	-874.90808	1000.73810	-83.86612	-378.31085	797.10632	-149.83054	-820.53210	815.00140	37.70058	-466.58966	841.59180	-96.30582	-702.16235	868.14557	-11.58248	-653.53162	926.44623	-256.57935	-471.86847	420.89117	-72.04616	-697.55487	444.77002	15.06121	-585.29999	235.66798	-327.86081	-711.39905	106.69494	-20.26357	
152	1.510	-490.13495	1486.09106	46.47777	-605.74536	1605.42065	-208.25163	-461.70572	1546.56995	-154.19141	-626.40283	1530.88635	0.32415	-428.58908	1318.95911	-239.51514	-762.00494	1335.57776	-96.28430	-540.17798	1217.98035	-44.52866	-620.40796	1381.26709	-213.77031	-379.31403	980.83765	-252.72627	-872.09216	1002.77399	-71.73008	-374.87756	799.94122	-145.39691	-816.25787	816.70844	51.23439	-463.15869	844.00568	-90.57309	-698.16705	867.96021	-2.13211	-651.24579	927.96051	-248.01944	-464.43320	425.41177	-54.97968	-696.20740	444.64432	17.90061	-582.37390	236.92690	-306.80933	-711.43665	107.74731	-19.39123	
